# xmcd
#
# Track frame offsets: 
#        182
#        13862
#        26655
#        40220
#        53230
#        66535
#        80225
#        92310
#        104300
#        117765
#        130870
#        145025
#        158460
#        170032
#        182275
#        194537
#        206710
#        219355
#        232365
#        246122
#        259722
#        272865
#        284682
#        297010
#        309490
#        321415
#        333317
#
# Disc length: 4606 seconds
#
# Revision: 1
# Processed by: cddbd v1.5.2PL0 Copyright (c) Steve Scherf et al.
# Submitted via: ExactAudioCopy v0.99pb4
#
DISCID=9911fc1b
DTITLE=Slim and Slam - Complete Slim and Slam Vol. 3
DYEAR=1900
DGENRE=
TTITLE0=Don't Let Us Say Goodbye
TTITLE1=Rhythm Mad
TTITLE2=Bongo
TTITLE3=Broadway Jump
TTITLE4=Put Your Arms Around Me Baby
TTITLE5=Looking for a Place to Park
TTITLE6=Hit That Mess
TTITLE7=Hey! Chef
TTITLE8=Ah Now
TTITLE9=Ah Now
TTITLE10=A Tip on the Numbers
TTITLE11=A Tip on the Numbers
TTITLE12=Slim Slam Boogie
TTITLE13=Slim Slam Boogie
TTITLE14=Bassology
TTITLE15=Bassology
TTITLE16=Bassology
TTITLE17=Bingie-Bingie-Scootie
TTITLE18=B-19
TTITLE19=B-19
TTITLE20=Champagne Lullaby
TTITLE21=African Jive
TTITLE22=African Jive
TTITLE23=African Jive
TTITLE24=Palm Springs Jump
TTITLE25=Ra-Da-Da-Da
TTITLE26=Groove Juice Special
EXTD=
EXTT0=
EXTT1=
EXTT2=
EXTT3=
EXTT4=
EXTT5=
EXTT6=
EXTT7=
EXTT8=
EXTT9=
EXTT10=
EXTT11=
EXTT12=
EXTT13=
EXTT14=
EXTT15=
EXTT16=
EXTT17=
EXTT18=
EXTT19=
EXTT20=
EXTT21=
EXTT22=
EXTT23=
EXTT24=
EXTT25=
EXTT26=
PLAYORDER=
